<?xml version="1.0" encoding="iso-8859-1"?>
<!-- Generator: Adobe Illustrator 19.0.0, SVG Export Plug-In . SVG Version: 6.00 Build 0)  -->
<svg version="1.1" id="Capa_1" xmlns="http://www.w3.org/2000/svg" xmlns:xlink="http://www.w3.org/1999/xlink" x="0px" y="0px"
	 viewBox="0 0 512 512" style="enable-background:new 0 0 512 512;" xml:space="preserve">
<path style="fill:#F3D064;" d="M282.844,257.5c37.56,0,68-30.44,68-68s-30.44-68-68-68h-119.33c-5.89,0-10.67,4.78-10.67,10.67
	V257.5v125.33c0,5.89,4.78,10.67,10.67,10.67h119.33c37.56,0,68-30.44,68-68c0-18.78-7.61-35.78-19.92-48.08
	C318.624,265.11,301.624,257.5,282.844,257.5z M187.726,161.94c0-3,2.44-5.44,5.44-5.44h88.9c18.47,0,33.97,15.11,33.66,33.57
	c-0.31,17.93-14.99,32.43-33,32.43h-89.56c-3,0-5.44-2.44-5.44-5.44L187.726,161.94L187.726,161.94z M282.726,358.5h-89.56
	c-3,0-5.44-2.44-5.44-5.44v-55.12c0-3,2.44-5.44,5.44-5.44h88.9c18.47,0,33.97,15.11,33.66,33.57
	C315.416,344,300.736,358.5,282.726,358.5z"/>
<path style="fill:#DC8960;" d="M315.438,321.24c0.213,1.579,0.316,3.19,0.288,4.83c-0.31,17.93-14.99,32.43-33,32.43h-89.56
	c-3,0-5.44-2.44-5.44-5.44v-55.12c0-3,2.44-5.44,5.44-5.44h42.39v-70h-42.39c-3,0-5.44-2.44-5.44-5.44v-55.12
	c0-3,2.44-5.44,5.44-5.44h42.39v-35h-72.042c-5.89,0-10.67,4.78-10.67,10.67V257.5v125.33c0,5.89,4.78,10.67,10.67,10.67h119.33
	c37.56,0,68-30.44,68-68c0-1.432-0.059-2.85-0.146-4.26L315.438,321.24L315.438,321.24z"/>
<g>
	<path style="fill:#EABB40;" d="M152.726,512c-4.142,0-7.5-3.357-7.5-7.5V7.5c0-4.143,3.358-7.5,7.5-7.5s7.5,3.357,7.5,7.5v497
		C160.226,508.643,156.868,512,152.726,512z"/>
	<path style="fill:#EABB40;" d="M350.726,512c-4.142,0-7.5-3.357-7.5-7.5V7.5c0-4.143,3.358-7.5,7.5-7.5s7.5,3.357,7.5,7.5v497
		C358.226,508.643,354.868,512,350.726,512z"/>
	<path style="fill:#EABB40;" d="M406.226,129h-310c-4.142,0-7.5-3.357-7.5-7.5s3.358-7.5,7.5-7.5h310c4.142,0,7.5,3.357,7.5,7.5
		S410.368,129,406.226,129z"/>
	<path style="fill:#EABB40;" d="M406.726,265h-310c-4.142,0-7.5-3.357-7.5-7.5s3.358-7.5,7.5-7.5h310c4.142,0,7.5,3.357,7.5,7.5
		S410.868,265,406.726,265z"/>
	<path style="fill:#EABB40;" d="M406.726,401h-310c-4.142,0-7.5-3.357-7.5-7.5s3.358-7.5,7.5-7.5h310c4.142,0,7.5,3.357,7.5,7.5
		S410.868,401,406.726,401z"/>
</g>
<path style="fill:#FF395E;" d="M495.806,302.11c1.29,1.29,1.29,3.38,0,4.67l-12.3,12.3c-1.29,1.29-3.38,1.29-4.67,0l-23.83-23.83
	l-9.46,9.47c-2.05,2.05-5.57,0.85-5.93-2.03l-5.82-45.62l45.62,5.82c2.88,0.36,4.08,3.88,2.03,5.93l-9.47,9.46L495.806,302.11z"/>
<path style="fill:#7CA1D8;" d="M58.366,357.5h-31.28c-5.17,0-9.36-4.19-9.36-9.36v-31.28c0-5.17,4.19-9.36,9.36-9.36h31.28
	c5.17,0,9.36,4.19,9.36,9.36v31.28C67.726,353.31,63.536,357.5,58.366,357.5z"/>
<path style="fill:#FF395E;" d="M58.366,282.5h-31.28c-5.17,0-9.36-4.19-9.36-9.36v-31.28c0-5.17,4.19-9.36,9.36-9.36h31.28
	c5.17,0,9.36,4.19,9.36,9.36v31.28C67.726,278.31,63.536,282.5,58.366,282.5z"/>
<path style="fill:#DFDE48;" d="M58.366,207.5h-31.28c-5.17,0-9.36-4.19-9.36-9.36v-31.28c0-5.17,4.19-9.36,9.36-9.36h31.28
	c5.17,0,9.36,4.19,9.36,9.36v31.28C67.726,203.31,63.536,207.5,58.366,207.5z"/>
<path style="fill:#F3D064;" d="M58.366,132.5h-31.28c-5.17,0-9.36-4.19-9.36-9.36V91.86c0-5.17,4.19-9.36,9.36-9.36h31.28
	c5.17,0,9.36,4.19,9.36,9.36v31.28C67.726,128.31,63.536,132.5,58.366,132.5z"/>
<path style="fill:#7CA1D8;" d="M58.366,307.5h-31.28c-5.17,0-9.36,4.19-9.36,9.36v3.336H45.67c5.17,0,9.36,4.19,9.36,9.36V357.5
	h3.336c5.17,0,9.36-4.19,9.36-9.36v-31.28C67.726,311.69,63.536,307.5,58.366,307.5z"/>
<path style="fill:#FF395E;" d="M58.366,232.5h-31.28c-5.17,0-9.36,4.19-9.36,9.36v3.336H45.67c5.17,0,9.36,4.19,9.36,9.36V282.5
	h3.336c5.17,0,9.36-4.19,9.36-9.36v-31.28C67.726,236.69,63.536,232.5,58.366,232.5z"/>
<path style="fill:#C5D65C;" d="M58.366,157.5h-31.28c-5.17,0-9.36,4.19-9.36,9.36v3.336H45.67c5.17,0,9.36,4.19,9.36,9.36V207.5
	h3.336c5.17,0,9.36-4.19,9.36-9.36v-31.28C67.726,161.69,63.536,157.5,58.366,157.5z"/>
<path style="fill:#EDBD41;" d="M58.366,82.5h-31.28c-5.17,0-9.36,4.19-9.36,9.36v3.336H45.67c5.17,0,9.36,4.19,9.36,9.36V132.5
	h3.336c5.17,0,9.36-4.19,9.36-9.36V91.86C67.726,86.69,63.536,82.5,58.366,82.5z"/>
<path style="fill:#EDEEAB;" d="M59.246,447.67h-33.37c-5.88,0-10.65-4.77-10.65-10.65v-33.37c0-5.88,4.77-10.65,10.65-10.65h33.37
	c5.88,0,10.65,4.77,10.65,10.65v33.37C69.896,442.9,65.126,447.67,59.246,447.67z"/>
<path style="fill:#C5D65C;" d="M86.576,475h-33.37c-5.88,0-10.65-4.77-10.65-10.65v-33.37c0-5.88,4.77-10.65,10.65-10.65h33.37
	c5.88,0,10.65,4.77,10.65,10.65v33.37C97.226,470.23,92.456,475,86.576,475z"/>
<g>
</g>
<g>
</g>
<g>
</g>
<g>
</g>
<g>
</g>
<g>
</g>
<g>
</g>
<g>
</g>
<g>
</g>
<g>
</g>
<g>
</g>
<g>
</g>
<g>
</g>
<g>
</g>
<g>
</g>
</svg>
