<?xml version="1.0" encoding="iso-8859-1"?>
<!-- Generator: Adobe Illustrator 19.0.0, SVG Export Plug-In . SVG Version: 6.00 Build 0)  -->
<svg version="1.1" id="Capa_1" xmlns="http://www.w3.org/2000/svg" xmlns:xlink="http://www.w3.org/1999/xlink" x="0px" y="0px"
	 viewBox="0 0 512 512" style="enable-background:new 0 0 512 512;" xml:space="preserve">
<path style="fill:#9E9E9E;" d="M352.022,73.578h-2.031v-16.04h-24.186v16.053c-6.72,0.138-12.135,5.625-12.135,12.378v9.722
	c0,6.754,5.414,12.24,12.135,12.378v14.221h24.186v-14.208h2.031c6.84,0,12.392-5.551,12.392-12.392v-9.722
	C364.413,79.129,358.862,73.578,352.022,73.578z"/>
<path style="fill:#939190;" d="M336.504,95.692v-9.722c0-6.754,5.414-12.24,12.135-12.378V57.538h-22.834v16.053
	c-6.72,0.138-12.135,5.625-12.135,12.378v9.722c0,6.754,5.414,12.24,12.135,12.378v14.221h22.834V108.07
	C341.919,107.932,336.504,102.446,336.504,95.692z"/>
<rect x="88.375" y="384.127" style="fill:#9B8580;" width="26.387" height="114.68"/>
<rect x="88.375" y="384.127" style="fill:#817067;" width="13.193" height="114.68"/>
<path style="fill:#9B8580;" d="M354.22,359.77v36.535H67.984c-3.319,0-6.001-2.608-6.001-5.835v-24.864
	c0-3.227,2.682-5.835,6.001-5.835H354.22z"/>
<path style="fill:#817067;" d="M61.983,372.202v18.268c0,3.227,2.682,5.835,6.001,5.835H354.22v-18.268H67.984
	C64.665,378.038,61.983,375.429,61.983,372.202z"/>
<g>
	<path style="fill:#9B8580;" d="M428.603,497.569h-60.385c-4.904,0-8.88-3.408-8.88-7.611s3.976-7.612,8.88-7.612h60.385
		c4.904,0,8.88,3.408,8.88,7.612S433.507,497.569,428.603,497.569z"/>
	<path style="fill:#9B8580;" d="M428.603,462.779h-60.385c-4.904,0-8.88-3.408-8.88-7.611s3.976-7.612,8.88-7.612h60.385
		c4.904,0,8.88,3.408,8.88,7.612S433.507,462.779,428.603,462.779z"/>
	<path style="fill:#9B8580;" d="M428.603,427.989h-60.385c-4.904,0-8.88-3.408-8.88-7.611c0-4.204,3.976-7.612,8.88-7.612h60.385
		c4.904,0,8.88,3.408,8.88,7.612C437.483,424.581,433.507,427.989,428.603,427.989z"/>
	<path style="fill:#9B8580;" d="M428.603,393.199h-60.385c-4.904,0-8.88-3.408-8.88-7.612c0-4.204,3.976-7.611,8.88-7.611h60.385
		c4.904,0,8.88,3.408,8.88,7.611C437.483,389.791,433.507,393.199,428.603,393.199z"/>
</g>
<path style="fill:#817067;" d="M372.532,351.651v156.3c0,2.236-1.813,4.049-4.049,4.049h-18.289c-2.236,0-4.049-1.813-4.049-4.049
	v-156.3H372.532z"/>
<path style="fill:#7C6359;" d="M359.339,507.951v-156.3h-13.193v156.3c0,2.236,1.813,4.049,4.049,4.049h13.193
	C361.151,512,359.339,510.187,359.339,507.951z"/>
<path style="fill:#817067;" d="M450.677,337.443v170.508c0,2.236-1.813,4.049-4.049,4.049h-18.289c-2.236,0-4.049-1.813-4.049-4.049
	V337.443H450.677z"/>
<path style="fill:#7C6359;" d="M437.483,507.951V337.443H424.29v170.508c0,2.236,1.813,4.049,4.049,4.049h13.193
	C439.296,512,437.483,510.187,437.483,507.951z"/>
<path style="fill:#717483;" d="M451.032,140.61v200.842c0,10.118-8.2,18.318-18.318,18.318H119.526
	c-10.118,0-18.318-8.2-18.318-18.318V140.61c0-10.118,8.2-18.318,18.318-18.318h157.72h123.59h31.877
	C442.832,122.291,451.032,130.492,451.032,140.61z"/>
<path style="fill:#4C5574;" d="M228.066,341.452V140.61c0-10.118,8.2-18.318,18.318-18.318H119.526
	c-10.118,0-18.318,8.2-18.318,18.318v200.842c0,10.118,8.2,18.318,18.318,18.318h126.858
	C236.266,359.77,228.066,351.57,228.066,341.452z"/>
<path style="fill:#8ACAEB;" d="M425.66,156.541v155.53H126.579v-155.53c0-4.903,3.975-8.878,8.878-8.878h139.648h127.873h13.804
	C421.685,147.663,425.66,151.638,425.66,156.541z"/>
<path style="fill:#8BB1EA;" d="M231.87,147.663h-96.412c-4.903,0-8.878,3.975-8.878,8.878v155.53h96.412v-155.53
	C222.992,151.638,226.967,147.663,231.87,147.663z"/>
<path style="fill:#F4F5F5;" d="M101.208,311.564v29.888c0,10.118,8.2,18.318,18.318,18.318h313.188
	c10.118,0,18.318-8.2,18.318-18.318v-29.888H101.208z"/>
<path style="fill:#E8E9E9;" d="M228.066,341.452v-29.888H101.208v29.888c0,10.118,8.2,18.318,18.318,18.318h126.858
	C236.266,359.77,228.066,351.57,228.066,341.452z"/>
<circle style="fill:#C9CACA;" cx="276.115" cy="336.428" r="9.641"/>
<path style="fill:#817067;" d="M142.157,492.423v13.782c0,3.197-2.598,5.795-5.795,5.795h-69.6c-3.197,0-5.795-2.598-5.795-5.795
	v-13.782c0-3.197,2.598-5.795,5.795-5.795h69.6C139.559,486.628,142.157,489.226,142.157,492.423z"/>
<path style="fill:#7C6359;" d="M136.363,499.314h-69.6c-3.197,0-5.795-2.598-5.795-5.795v12.686c0,3.197,2.598,5.795,5.795,5.795
	h69.6c3.197,0,5.795-2.598,5.795-5.795v-12.686C142.157,496.716,139.559,499.314,136.363,499.314z"/>
<path style="fill:#FF395E;" d="M368.473,7.611v48.125c0,9.854-7.987,17.841-17.841,17.841h-23.18
	c-9.854,0-17.841-7.987-17.841-17.841V7.611H368.473z"/>
<path style="fill:#B12E65;" d="M339.041,55.736V7.611H309.61v48.125c0,9.854,7.987,17.841,17.841,17.841h23.18
	c1.069,0,2.109-0.111,3.126-0.29C345.397,71.807,339.041,64.522,339.041,55.736z"/>
<path style="fill:#F3D064;" d="M396.412,193.281v71.142c0,4.455-3.613,8.068-8.068,8.068h-98.604c-4.455,0-8.068-3.613-8.068-8.068
	v-71.142c0-4.455,3.613-8.068,8.068-8.068h98.604C392.799,185.213,396.412,188.826,396.412,193.281z"/>
<path style="fill:#EDBD41;" d="M339.041,264.423v-71.142c0-4.455,3.613-8.068,8.068-8.068h-57.37c-4.455,0-8.068,3.613-8.068,8.068
	v71.142c0,4.455,3.613,8.068,8.068,8.068h57.37C342.654,272.492,339.041,268.879,339.041,264.423z"/>
<path style="fill:#E2E2E3;" d="M402.978,132.237v49.18c0,2.101-1.695,3.796-3.796,3.796h-24.884c-2.101,0-3.796-1.695-3.796-3.796
	v-36.586c0-4.039-3.278-7.317-7.317-7.317h-48.287c-4.039,0-7.317,3.278-7.317,7.317v36.586c0,2.101-1.695,3.796-3.796,3.796
	h-24.884c-2.101,0-3.796-1.695-3.796-3.796v-49.18c0-13.335,10.818-24.154,24.154-24.154h79.565
	C392.16,108.083,402.978,118.902,402.978,132.237z"/>
<g>
	<path style="fill:#EAB430;" d="M323.311,252.194c-1.948,0-3.896-0.743-5.382-2.23l-15.73-15.73c-2.973-2.973-2.973-7.792,0-10.764
		l17.253-17.253c2.973-2.973,7.792-2.973,10.764,0c2.973,2.973,2.973,7.792,0,10.764l-11.871,11.871l10.349,10.349
		c2.973,2.973,2.973,7.792,0,10.764C327.207,251.451,325.259,252.194,323.311,252.194z"/>
	<path style="fill:#EAB430;" d="M354.772,252.194c-1.948,0-3.896-0.743-5.382-2.23c-2.973-2.973-2.973-7.792,0-10.764l10.349-10.349
		l-11.871-11.871c-2.973-2.973-2.973-7.792,0-10.764c2.973-2.973,7.792-2.973,10.764,0l17.253,17.253
		c2.973,2.973,2.973,7.792,0,10.764l-15.73,15.73C358.668,251.451,356.719,252.194,354.772,252.194z"/>
</g>
<g>
	<path style="fill:#7CA1D8;" d="M175.902,192.571h-16.238c-4.204,0-7.611-3.408-7.611-7.611c0-4.204,3.408-7.611,7.611-7.611h16.238
		c4.204,0,7.611,3.408,7.611,7.611C183.513,189.163,180.105,192.571,175.902,192.571z"/>
	<path style="fill:#7CA1D8;" d="M251.002,192.571h-50.743c-4.204,0-7.611-3.408-7.611-7.611c0-4.204,3.408-7.611,7.611-7.611h50.743
		c4.204,0,7.611,3.408,7.611,7.611C258.613,189.163,255.205,192.571,251.002,192.571z"/>
	<path style="fill:#7CA1D8;" d="M204.318,224.032h-31.461c-4.204,0-7.611-3.408-7.611-7.611c0-4.204,3.408-7.611,7.611-7.611h31.461
		c4.204,0,7.611,3.408,7.611,7.611C211.929,220.624,208.522,224.032,204.318,224.032z"/>
	<path style="fill:#7CA1D8;" d="M251.002,224.032H225.63c-4.204,0-7.611-3.408-7.611-7.611c0-4.204,3.408-7.611,7.611-7.611h25.372
		c4.204,0,7.611,3.408,7.611,7.611C258.613,220.624,255.205,224.032,251.002,224.032z"/>
	<path style="fill:#7CA1D8;" d="M251.002,252.448h-91.338c-4.204,0-7.611-3.408-7.611-7.612c0-4.204,3.408-7.611,7.611-7.611h91.338
		c4.204,0,7.611,3.408,7.611,7.611C258.613,249.04,255.205,252.448,251.002,252.448z"/>
	<path style="fill:#7CA1D8;" d="M167.783,282.894h-8.119c-4.204,0-7.611-3.408-7.611-7.611s3.408-7.612,7.611-7.612h8.119
		c4.204,0,7.611,3.408,7.611,7.612S171.986,282.894,167.783,282.894z"/>
	<path style="fill:#7CA1D8;" d="M250.748,283.148h-61.907c-4.204,0-7.611-3.408-7.611-7.611c0-4.204,3.408-7.612,7.611-7.612h61.907
		c4.204,0,7.612,3.408,7.612,7.612C258.36,279.74,254.952,283.148,250.748,283.148z"/>
</g>
<path style="fill:#9E9E9E;" d="M386.74,15.223h-92.353c-4.204,0-7.612-3.408-7.612-7.611S290.184,0,294.387,0h92.353
	c4.204,0,7.612,3.408,7.612,7.611S390.944,15.223,386.74,15.223z"/>
<g>
</g>
<g>
</g>
<g>
</g>
<g>
</g>
<g>
</g>
<g>
</g>
<g>
</g>
<g>
</g>
<g>
</g>
<g>
</g>
<g>
</g>
<g>
</g>
<g>
</g>
<g>
</g>
<g>
</g>
</svg>
