<?xml version="1.0" encoding="iso-8859-1"?>
<!-- Generator: Adobe Illustrator 19.0.0, SVG Export Plug-In . SVG Version: 6.00 Build 0)  -->
<svg version="1.1" id="Capa_1" xmlns="http://www.w3.org/2000/svg" xmlns:xlink="http://www.w3.org/1999/xlink" x="0px" y="0px"
	 viewBox="0 0 512 512" style="enable-background:new 0 0 512 512;" xml:space="preserve">
<g>
	<path style="fill:#F3D064;" d="M77.245,78.662H65.177c-12.579,0-22.811-10.234-22.811-22.812c0-12.577,10.233-22.811,22.811-22.811
		h6.034c4.267,0,7.726,3.458,7.726,7.726s-3.459,7.726-7.726,7.726h-6.034c-4.057,0-7.359,3.301-7.359,7.359s3.302,7.36,7.359,7.36
		h12.068c4.057,0,7.359-3.301,7.359-7.36c0-4.268,3.459-7.726,7.726-7.726c4.267,0,7.726,3.458,7.726,7.726
		C100.056,68.429,89.824,78.662,77.245,78.662z"/>
	<path style="fill:#F3D064;" d="M77.503,138.412H65.435c-12.579,0-22.811-10.234-22.811-22.812
		c0-12.577,10.233-22.811,22.811-22.811h6.034c4.267,0,7.726,3.458,7.726,7.726s-3.459,7.726-7.726,7.726h-6.034
		c-4.057,0-7.359,3.301-7.359,7.359c0,4.058,3.302,7.36,7.359,7.36h12.068c4.057,0,7.359-3.301,7.359-7.36
		c0-4.268,3.459-7.726,7.726-7.726c4.267,0,7.726,3.458,7.726,7.726C100.314,128.179,90.081,138.412,77.503,138.412z"/>
	<path style="fill:#F3D064;" d="M77.503,198.163H65.435c-12.579,0-22.811-10.234-22.811-22.812
		c0-12.577,10.233-22.811,22.811-22.811h6.034c4.267,0,7.726,3.458,7.726,7.726s-3.459,7.726-7.726,7.726h-6.034
		c-4.057,0-7.359,3.301-7.359,7.359c0,4.058,3.302,7.36,7.359,7.36h12.068c4.057,0,7.359-3.301,7.359-7.36
		c0-4.268,3.459-7.726,7.726-7.726c4.267,0,7.726,3.458,7.726,7.726C100.314,187.93,90.081,198.163,77.503,198.163z"/>
	<path style="fill:#F3D064;" d="M77.503,257.913H65.435c-12.579,0-22.811-10.234-22.811-22.812
		c0-12.577,10.233-22.811,22.811-22.811h6.034c4.267,0,7.726,3.458,7.726,7.726c0,4.268-3.459,7.726-7.726,7.726h-6.034
		c-4.057,0-7.359,3.301-7.359,7.359c0,4.058,3.302,7.36,7.359,7.36h12.068c4.057,0,7.359-3.301,7.359-7.36
		c0-4.268,3.459-7.726,7.726-7.726c4.267,0,7.726,3.458,7.726,7.726C100.314,247.68,90.081,257.913,77.503,257.913z"/>
	<path style="fill:#F3D064;" d="M77.503,317.664H65.435c-12.579,0-22.811-10.234-22.811-22.812
		c0-12.578,10.233-22.811,22.811-22.811h6.034c4.267,0,7.726,3.458,7.726,7.726c0,4.268-3.459,7.726-7.726,7.726h-6.034
		c-4.057,0-7.359,3.301-7.359,7.359c0,4.058,3.302,7.36,7.359,7.36h12.068c4.057,0,7.359-3.301,7.359-7.36
		c0-4.268,3.459-7.726,7.726-7.726c4.267,0,7.726,3.458,7.726,7.726C100.314,307.431,90.081,317.664,77.503,317.664z"/>
	<path style="fill:#F3D064;" d="M77.503,377.414H65.435c-12.579,0-22.811-10.234-22.811-22.812
		c0-12.577,10.233-22.811,22.811-22.811h6.034c4.267,0,7.726,3.458,7.726,7.726c0,4.268-3.459,7.726-7.726,7.726h-6.034
		c-4.057,0-7.359,3.301-7.359,7.359c0,4.058,3.302,7.36,7.359,7.36h12.068c4.057,0,7.359-3.301,7.359-7.36
		c0-4.268,3.459-7.726,7.726-7.726c4.267,0,7.726,3.458,7.726,7.726C100.314,367.181,90.081,377.414,77.503,377.414z"/>
</g>
<path id="SVGCleanerId_0" style="fill:#F3D064;" d="M77.503,437.165H65.435c-12.579,0-22.811-10.234-22.811-22.812
	c0-12.578,10.233-22.811,22.811-22.811h6.034c4.267,0,7.726,3.458,7.726,7.726s-3.459,7.726-7.726,7.726h-6.034
	c-4.057,0-7.359,3.301-7.359,7.359c0,4.058,3.302,7.36,7.359,7.36h12.068c4.057,0,7.359-3.301,7.359-7.36
	c0-4.268,3.459-7.726,7.726-7.726c4.267,0,7.726,3.458,7.726,7.726C100.314,426.932,90.081,437.165,77.503,437.165z"/>
<path style="fill:#EBDBAF;" d="M340.346,52.756V467.63c0,24.508-19.862,44.37-44.37,44.37H83.151
	c-6.449,0-11.682-5.233-11.682-11.682v-32.276c0,4.935,3.997,8.932,8.932,8.932h212.125c11.054,0,20.006-8.952,20.006-20.006V28.845
	h3.904C329.642,28.845,340.346,39.549,340.346,52.756z"/>
<path style="fill:#FCF5DF;" d="M312.531,20.006v436.962c0,11.054-8.952,20.006-20.006,20.006H80.4c-4.935,0-8.932-3.997-8.932-8.932
	V8.932C71.469,3.997,75.466,0,80.4,0h212.125C303.579,0,312.531,8.952,312.531,20.006z"/>
<path style="fill:#F3E7C6;" d="M263.854,441.433c-59.028,0-106.88-47.852-106.88-106.88V0H80.4c-4.933,0-8.932,3.999-8.932,8.932
	v459.111c0,4.932,3.999,8.932,8.932,8.932h212.125c11.049,0,20.006-8.957,20.006-20.006v-15.535H263.854z"/>
<g>
	<path id="SVGCleanerId_0_1_" style="fill:#F3D064;" d="M77.503,437.165H65.435c-12.579,0-22.811-10.234-22.811-22.812
		c0-12.578,10.233-22.811,22.811-22.811h6.034c4.267,0,7.726,3.458,7.726,7.726s-3.459,7.726-7.726,7.726h-6.034
		c-4.057,0-7.359,3.301-7.359,7.359c0,4.058,3.302,7.36,7.359,7.36h12.068c4.057,0,7.359-3.301,7.359-7.36
		c0-4.268,3.459-7.726,7.726-7.726c4.267,0,7.726,3.458,7.726,7.726C100.314,426.932,90.081,437.165,77.503,437.165z"/>
</g>
<path style="fill:#8ACAEB;" d="M438.213,129.834v270.33c0,6.577-5.332,11.909-11.909,11.909h-17.389
	c-6.577,0-11.909-5.332-11.909-11.909v-270.33l18.297-31.589c1.027-1.773,3.587-1.773,4.614,0L438.213,129.834z"/>
<path style="fill:#7CA1D8;" d="M417.61,400.164V145.349c0-10.163,2.683-20.146,7.776-28.941l2.526-4.361l-7.994-13.803
	c-1.027-1.773-3.587-1.773-4.614,0l-18.296,31.589v270.33c0,6.577,5.332,11.909,11.909,11.909h17.389
	c0.547,0,1.081-0.049,1.607-0.121C422.096,411.165,417.61,406.194,417.61,400.164z"/>
<path style="fill:#C7CFCF;" d="M461.907,364.523h-64.901c-4.268,0-7.726-3.458-7.726-7.726c0-4.268,3.458-7.726,7.726-7.726h57.175
	v-55.469c0-4.268,3.458-7.726,7.726-7.726c4.268,0,7.726,3.458,7.726,7.726v63.195C469.634,361.064,466.175,364.523,461.907,364.523
	z"/>
<g>
	<path style="fill:#517FA4;" d="M417.61,194.189c-4.268,0-7.726-3.458-7.726-7.726v-19.573c0-4.268,3.458-7.726,7.726-7.726
		c4.268,0,7.726,3.458,7.726,7.726v19.573C425.336,190.731,421.878,194.189,417.61,194.189z"/>
	<rect x="397.001" y="130.318" style="fill:#517FA4;" width="41.207" height="15.453"/>
</g>
<g>
	<path style="fill:#F3D064;" d="M92.33,48.124c-4.267,0-7.726,3.458-7.726,7.726c0,4.058-3.302,7.36-7.359,7.36h-6.034v15.453h6.034
		c12.579,0,22.811-10.234,22.811-22.812C100.056,51.582,96.597,48.124,92.33,48.124z"/>
	<path style="fill:#F3D064;" d="M92.588,107.874c-4.267,0-7.726,3.458-7.726,7.726c0,4.058-3.302,7.36-7.359,7.36h-6.291v15.453
		h6.291c12.579,0,22.811-10.234,22.811-22.812C100.314,111.333,96.855,107.874,92.588,107.874z"/>
	<path style="fill:#F3D064;" d="M92.588,167.625c-4.267,0-7.726,3.458-7.726,7.726c0,4.058-3.302,7.36-7.359,7.36h-6.291v15.453
		h6.291c12.579,0,22.811-10.234,22.811-22.812C100.314,171.083,96.855,167.625,92.588,167.625z"/>
	<path style="fill:#F3D064;" d="M92.588,227.375c-4.267,0-7.726,3.458-7.726,7.726c0,4.058-3.302,7.36-7.359,7.36h-6.291v15.453
		h6.291c12.579,0,22.811-10.234,22.811-22.812C100.314,230.834,96.855,227.375,92.588,227.375z"/>
	<path style="fill:#F3D064;" d="M92.588,287.126c-4.267,0-7.726,3.458-7.726,7.726c0,4.058-3.302,7.36-7.359,7.36h-6.291v15.453
		h6.291c12.579,0,22.811-10.234,22.811-22.812C100.314,290.584,96.855,287.126,92.588,287.126z"/>
	<path style="fill:#F3D064;" d="M92.588,346.876c-4.267,0-7.726,3.458-7.726,7.726c0,4.058-3.302,7.36-7.359,7.36h-6.291v15.453
		h6.291c12.579,0,22.811-10.234,22.811-22.812C100.314,350.335,96.855,346.876,92.588,346.876z"/>
	<path style="fill:#F3D064;" d="M92.588,406.627c-4.267,0-7.726,3.458-7.726,7.726c0,4.058-3.302,7.36-7.359,7.36h-6.291v15.453
		h6.291c12.579,0,22.811-10.234,22.811-22.812C100.314,410.085,96.855,406.627,92.588,406.627z"/>
</g>
<g>
	<path style="fill:#E8E984;" d="M246.056,307.509H137.944c-8.536,0-15.482-6.944-15.482-15.482V183.916
		c0-8.537,6.945-15.482,15.482-15.482h108.111c8.536,0,15.482,6.944,15.482,15.482v108.11
		C261.537,300.565,254.592,307.509,246.056,307.509z M137.944,183.887l-0.029,108.14l108.14,0.029c0.01,0,0.014-0.001,0.014-0.001
		l0.014-108.139L137.944,183.887z"/>
	<path style="fill:#E8E984;" d="M192,284.845c-25.846,0-46.873-21.027-46.873-46.873s21.027-46.873,46.873-46.873
		s46.873,21.027,46.873,46.873S217.846,284.845,192,284.845z M192,206.551c-17.326,0-31.421,14.096-31.421,31.421
		s14.095,31.421,31.421,31.421s31.421-14.096,31.421-31.421S209.326,206.551,192,206.551z"/>
	<path style="fill:#E8E984;" d="M192,260.121c-12.213,0-22.149-9.936-22.149-22.149c0-12.213,9.936-22.149,22.149-22.149
		c12.213,0,22.149,9.936,22.149,22.149C214.149,250.185,204.213,260.121,192,260.121z M192,231.276
		c-3.692,0-6.696,3.004-6.696,6.696s3.004,6.696,6.696,6.696s6.696-3.004,6.696-6.696S195.692,231.276,192,231.276z"/>
	<path style="fill:#E8E984;" d="M267.203,322.962c-1.995,0-3.988-0.767-5.5-2.299L109.236,166.135
		c-2.997-3.037-2.964-7.929,0.073-10.926s7.928-2.965,10.926,0.073l152.467,154.527c2.997,3.037,2.964,7.929-0.073,10.926
		C271.125,322.22,269.163,322.962,267.203,322.962z"/>
	<path style="fill:#E8E984;" d="M113.706,321.932c-1.995,0-3.989-0.767-5.5-2.299c-2.997-3.037-2.964-7.929,0.073-10.926
		l154.527-152.467c3.036-2.997,7.928-2.965,10.926,0.073c2.997,3.037,2.964,7.929-0.073,10.926L119.132,319.705
		C117.628,321.19,115.667,321.932,113.706,321.932z"/>
</g>
<g>
</g>
<g>
</g>
<g>
</g>
<g>
</g>
<g>
</g>
<g>
</g>
<g>
</g>
<g>
</g>
<g>
</g>
<g>
</g>
<g>
</g>
<g>
</g>
<g>
</g>
<g>
</g>
<g>
</g>
</svg>
