<?xml version="1.0" encoding="iso-8859-1"?>
<!-- Generator: Adobe Illustrator 19.0.0, SVG Export Plug-In . SVG Version: 6.00 Build 0)  -->
<svg version="1.1" id="Capa_1" xmlns="http://www.w3.org/2000/svg" xmlns:xlink="http://www.w3.org/1999/xlink" x="0px" y="0px"
	 viewBox="0 0 512 512" style="enable-background:new 0 0 512 512;" xml:space="preserve">
<path style="fill:#717483;" d="M418.254,177.232c0-9.127-7.397-16.524-16.524-16.524l-308.498-0.515l-0.515,215.782
	c0,1.164,0.937,2.102,2.102,2.102h321.334c1.164,0,2.102-0.937,2.102-2.102L418.254,177.232L418.254,177.232z"/>
<g>
	<path style="fill:#4C5574;" d="M418.254,254.97H309.745c-5.223,0-9.447,4.224-9.447,9.447v28.495c0,5.223,4.224,9.447,9.447,9.447
		h108.509V254.97z"/>
	<path style="fill:#4C5574;" d="M249.819,375.975l0.453-189.853c0.031-13.079,9.736-23.871,22.327-25.63l-179.368-0.299
		l-0.515,215.782c0,1.164,0.937,2.102,2.102,2.102H251.92C250.756,378.076,249.819,377.139,249.819,375.975z"/>
</g>
<path style="fill:#404B6C;" d="M93.007,254.455h85.967c17.195,0,31.184-13.989,31.184-31.184v-62.882l-116.926-0.196L93.007,254.455
	z"/>
<path style="fill:#8ACAEB;" d="M388.847,188.008H123.153c-2.87,0-5.197,2.327-5.197,5.197v184.871h276.089V193.205
	C394.044,190.335,391.717,188.008,388.847,188.008z"/>
<g>
	<path style="fill:#8BB1EA;" d="M394.044,254.97h-84.3c-5.223,0-9.447,4.224-9.447,9.447v28.495c0,5.223,4.224,9.447,9.447,9.447
		h84.3V254.97z"/>
	<path style="fill:#8BB1EA;" d="M235.958,188.008H123.153c-2.87,0-5.197,2.327-5.197,5.197v184.871h112.805V193.205
		C230.761,190.335,233.088,188.008,235.958,188.008z"/>
</g>
<path style="fill:#7CA1D8;" d="M123.153,188.008c-2.87,0-5.197,2.327-5.197,5.197v61.249h61.018
	c17.195,0,31.184-13.989,31.184-31.184v-35.263H123.153z"/>
<path style="fill:#C5D65C;" d="M263.16,216.338h-73.606h-47.388v17.513v34.46c0,3.163,2.555,5.717,5.718,5.717H263.16
	c3.163,0,5.717-2.555,5.717-5.717v-46.255C268.877,218.893,266.322,216.338,263.16,216.338z"/>
<path style="fill:#B7C946;" d="M189.553,216.338h-47.388v17.513v20.604h36.808c17.195,0,31.184-13.989,31.184-31.184v-6.933H189.553
	z"/>
<path style="fill:#7DBFEC;" d="M512,248.449v28.495c0,5.223-4.224,9.447-9.447,9.447H333.954c-5.223,0-9.447-4.224-9.447-9.447
	v-28.495c0-5.223,4.224-9.447,9.447-9.447h168.599C507.776,239.002,512,243.226,512,248.449z"/>
<path style="fill:#DCDDDD;" d="M462.551,381.754v7.953c0,12.352-10.013,22.365-22.365,22.365H70.784
	c-12.352,0-22.365-10.013-22.365-22.365v-7.953c0-2.031,1.646-3.678,3.678-3.678h406.777
	C460.905,378.076,462.551,379.723,462.551,381.754z"/>
<path style="fill:#B9C1C1;" d="M149.593,394.559c-10.315,0-18.994-6.986-21.578-16.483H52.096c-2.03,0-3.678,1.646-3.678,3.678
	v7.953c0,12.352,10.013,22.365,22.365,22.365h369.402c10.685,0,19.615-7.496,21.832-17.513H149.593z"/>
<path style="fill:#F4F5F5;" d="M189.553,110.508v112.764c0,5.841-4.739,10.58-10.58,10.58H10.58c-5.841,0-10.58-4.739-10.58-10.58
	V110.508c0-5.841,4.739-10.58,10.58-10.58h168.393C184.814,99.928,189.553,104.666,189.553,110.508z"/>
<path style="fill:#E8E9E9;" d="M59.75,223.271V110.508c0-5.841,4.739-10.58,10.58-10.58H10.58c-5.841,0-10.58,4.739-10.58,10.58
	v112.764c0,5.841,4.739,10.58,10.58,10.58H70.33C64.489,233.851,59.75,229.112,59.75,223.271z"/>
<path style="fill:#FF395E;" d="M178.973,99.928H10.58c-5.841,0-10.58,4.739-10.58,10.58v19.295h189.553v-19.295
	C189.553,104.666,184.814,99.928,178.973,99.928z"/>
<path style="fill:#B12E65;" d="M59.75,110.508c0-5.841,4.739-10.58,10.58-10.58H10.58c-5.841,0-10.58,4.739-10.58,10.58v19.295
	h59.75V110.508z"/>
<g>
	<path style="fill:#C5D65C;" d="M126.712,215.823c-18.461,0-33.481-15.02-33.481-33.481s15.02-33.481,33.481-33.481
		s33.481,15.02,33.481,33.481S145.173,215.823,126.712,215.823z M126.712,164.314c-9.94,0-18.028,8.088-18.028,18.028
		c0,9.94,8.088,18.028,18.028,18.028c9.94,0,18.028-8.088,18.028-18.028C144.74,172.402,136.652,164.314,126.712,164.314z"/>
	<path style="fill:#C5D65C;" d="M103.038,213.743c-1.977,0-3.955-0.754-5.463-2.263c-3.017-3.017-3.017-7.91,0-10.926l47.349-47.349
		c3.017-3.017,7.91-3.017,10.926,0c3.017,3.017,3.017,7.91,0,10.926l-47.349,47.349
		C106.993,212.989,105.015,213.743,103.038,213.743z"/>
	<path style="fill:#C5D65C;" d="M150.387,213.743c-1.977,0-3.955-0.754-5.463-2.263L97.575,164.13c-3.017-3.017-3.017-7.91,0-10.926
		c3.017-3.017,7.91-3.017,10.926,0l47.349,47.349c3.017,3.017,3.017,7.91,0,10.926C154.342,212.989,152.364,213.743,150.387,213.743
		z"/>
</g>
<path style="fill:#7DBFEC;" d="M70.052,161.831v16.297c0,2.895-2.349,5.244-5.244,5.244H28.938c-2.895,0-5.244-2.349-5.244-5.244
	v-16.297c0-2.895,2.349-5.244,5.244-5.244h35.871C67.703,156.588,70.052,158.936,70.052,161.831z"/>
<path style="fill:#C9CACA;" d="M70.052,212.732H23.694c-4.267,0-7.726-3.459-7.726-7.726s3.459-7.726,7.726-7.726h46.358
	c4.267,0,7.726,3.459,7.726,7.726S74.319,212.732,70.052,212.732z"/>
<path style="fill:#F3D064;" d="M268.877,301.318v19.594c0,1.422-1.143,2.565-2.565,2.565H144.73c-1.422,0-2.565-1.143-2.565-2.565
	v-19.594c0-1.422,1.144-2.565,2.565-2.565h121.582C267.734,298.753,268.877,299.896,268.877,301.318z"/>
<g>
	<path style="fill:#7CA1D8;" d="M302.873,355.928H142.165c-4.267,0-7.726-3.459-7.726-7.726c0-4.267,3.459-7.726,7.726-7.726
		h160.708c4.267,0,7.726,3.459,7.726,7.726C310.6,352.468,307.14,355.928,302.873,355.928z"/>
	<path style="fill:#7CA1D8;" d="M356.443,355.928H342.02c-4.267,0-7.726-3.459-7.726-7.726c0-4.267,3.459-7.726,7.726-7.726h14.423
		c4.267,0,7.726,3.459,7.726,7.726C364.169,352.468,360.71,355.928,356.443,355.928z"/>
	<path style="fill:#7CA1D8;" d="M356.443,331.203h-43.268c-4.267,0-7.726-3.459-7.726-7.726c0-4.267,3.459-7.726,7.726-7.726h43.268
		c4.267,0,7.726,3.459,7.726,7.726C364.169,327.744,360.71,331.203,356.443,331.203z"/>
	<circle style="fill:#7CA1D8;" cx="361.594" cy="262.696" r="6.696"/>
	<circle style="fill:#7CA1D8;" cx="390.439" cy="262.696" r="6.696"/>
	<circle style="fill:#7CA1D8;" cx="419.284" cy="262.696" r="6.696"/>
	<circle style="fill:#7CA1D8;" cx="448.129" cy="262.696" r="6.696"/>
	<circle style="fill:#7CA1D8;" cx="476.974" cy="262.696" r="6.696"/>
</g>
<g>
</g>
<g>
</g>
<g>
</g>
<g>
</g>
<g>
</g>
<g>
</g>
<g>
</g>
<g>
</g>
<g>
</g>
<g>
</g>
<g>
</g>
<g>
</g>
<g>
</g>
<g>
</g>
<g>
</g>
</svg>
