<?xml version="1.0" encoding="iso-8859-1"?>
<!-- Generator: Adobe Illustrator 19.0.0, SVG Export Plug-In . SVG Version: 6.00 Build 0)  -->
<svg version="1.1" id="Capa_1" xmlns="http://www.w3.org/2000/svg" xmlns:xlink="http://www.w3.org/1999/xlink" x="0px" y="0px"
	 viewBox="0 0 512 512" style="enable-background:new 0 0 512 512;" xml:space="preserve">
<path style="fill:#FF395E;" d="M325.11,180.893l-40.116-46.857h-55.918l-40.116,46.857c-5.613,6.565-1.678,17.863,6.234,17.863
	h33.882h55.918h33.882C326.788,198.756,330.723,187.459,325.11,180.893z"/>
<path style="fill:#F3D064;" d="M254.391,1.311l-37.352,49.093c-1.26,1.656-1.416,3.903-0.396,5.716l17.611,31.318v40.385h45.563
	V87.438l17.611-31.318c1.02-1.814,0.865-4.06-0.396-5.716L259.68,1.311C258.35-0.437,255.72-0.437,254.391,1.311z M257.036,72.941
	c-5.716,0-10.355-4.639-10.355-10.355s4.639-10.355,10.355-10.355s10.355,4.639,10.355,10.355S262.752,72.941,257.036,72.941z"/>
<path style="fill:#EDBD41;" d="M262.408,71.425c-1.568,0.956-3.403,1.517-5.372,1.517c-5.716,0-10.355-4.639-10.355-10.355
	c0-4.351,2.691-8.071,6.496-9.603c0.103-0.919,0.438-1.812,1.021-2.579l21.418-28.149L259.68,1.311c-1.33-1.748-3.96-1.748-5.289,0
	l-37.352,49.093c-1.26,1.656-1.416,3.903-0.396,5.717l17.611,31.318v40.385h37.16V87.439L262.408,71.425z"/>
<path style="fill:#474755;" d="M453.08,253.121H58.92c-8.398,0-15.201,6.803-15.201,15.201v228.476
	c0,8.398,6.803,15.201,15.201,15.201H453.08c8.398,0,15.201-6.803,15.201-15.201V268.322
	C468.281,259.924,461.478,253.121,453.08,253.121z"/>
<path style="fill:#404251;" d="M166.428,496.799V268.322c0-8.398,6.803-15.201,15.201-15.201H58.92
	c-8.398,0-15.201,6.803-15.201,15.201v228.476c0,8.398,6.803,15.201,15.201,15.201h122.709
	C173.231,512,166.428,505.197,166.428,496.799z"/>
<rect x="242.134" y="334.161" style="fill:#CDC4A6;" width="29.809" height="118.536"/>
<path style="fill:#77BEDB;" d="M453.08,253.121H301.728h-91.239H58.92c-8.398,0-15.201,6.803-15.201,15.201v34.503h115.978h192.606
	h115.978v-34.503C468.281,259.924,461.478,253.121,453.08,253.121z"/>
<path style="fill:#619BB2;" d="M166.428,302.826v-34.503c0-8.398,6.803-15.201,15.201-15.201H58.92
	c-8.398,0-15.201,6.803-15.201,15.201v34.503h115.978H166.428z"/>
<path style="fill:#FF395E;" d="M349.093,286.682l-45.459-28.384h-95.268l-45.459,28.384c-1.999,1.253-3.21,3.438-3.21,5.789v48.607
	c0,3.79,4.028,6.203,7.363,4.432l41.307-21.974h95.268l41.617,18.598c3.314,1.481,7.052-0.953,7.052-4.577V292.47
	C352.303,290.12,351.092,287.935,349.093,286.682z"/>
<g>
	<path style="fill:#B12E65;" d="M257.036,134.036h-27.959l-40.116,46.857c-5.613,6.565-1.678,17.863,6.234,17.863h33.882h27.959
		V134.036z"/>
	<path style="fill:#B12E65;" d="M257.036,258.298h-48.669l-45.459,28.384c-1.999,1.253-3.21,3.438-3.21,5.789v48.607
		c0,3.79,4.028,6.203,7.363,4.432l41.307-21.974h48.669V258.298z"/>
</g>
<path id="SVGCleanerId_0" style="fill:#FF395E;" d="M284.994,318.358v25.815c0,5.757-4.67,10.428-10.428,10.428h-35.063
	c-5.757,0-10.428-4.67-10.428-10.428v-25.815H284.994z"/>
<g>
	<path id="SVGCleanerId_0_1_" style="fill:#FF395E;" d="M284.994,318.358v25.815c0,5.757-4.67,10.428-10.428,10.428h-35.063
		c-5.757,0-10.428-4.67-10.428-10.428v-25.815H284.994z"/>
</g>
<path style="fill:#B12E65;" d="M257.036,318.358h-27.959v25.815c0,5.757,4.67,10.428,10.428,10.428h17.531V318.358z"/>
<path style="fill:#F4F5F5;" d="M280.966,113.326c2.216,0,4.007,1.812,3.987,4.028l0.041,108.843l18.639,29.999v65.672
	c0,3.209-2.601,5.809-5.809,5.809h-13.866h-55.918h-13.866c-3.209,0-5.809-2.601-5.809-5.809v-65.672l20.71-29.999l-0.041-108.916
	c0.021-2.185,1.812-3.956,3.997-3.956L280.966,113.326L280.966,113.326z"/>
<path style="fill:#E8E9E9;" d="M246.68,321.869v-65.672l20.71-29.999l-0.041-108.916c0.021-2.185,1.812-3.956,3.997-3.956h-38.314
	c-2.185,0-3.976,1.771-3.997,3.956l0.041,108.916l-20.71,29.999v65.672c0,3.208,2.601,5.809,5.809,5.809h13.866h24.449
	C249.282,327.678,246.68,325.077,246.68,321.869z"/>
<path style="fill:#FF395E;" d="M266.355,252.085v42.456c0,5.716-4.639,10.355-10.355,10.355c-5.716,0-10.355-4.639-10.355-10.355
	v-42.456c0-5.716,4.639-10.355,10.355-10.355c2.858,0,5.447,1.16,7.321,3.034C265.195,246.638,266.355,249.227,266.355,252.085z"/>
<circle style="fill:#842D65;" cx="73.749" cy="277.974" r="8.284"/>
<circle style="fill:#EAB430;" cx="101.19" cy="278.492" r="8.284"/>
<g>
	<circle style="fill:#C5D65C;" cx="128.631" cy="279.01" r="8.284"/>
	<path style="fill:#C5D65C;" d="M176.265,380.465H73.749c-4.29,0-7.766-3.476-7.766-7.766c0-4.29,3.476-7.766,7.766-7.766h102.516
		c4.29,0,7.766,3.476,7.766,7.766C184.032,376.989,180.554,380.465,176.265,380.465z"/>
</g>
<path style="fill:#EAB430;" d="M88.246,413.108H73.749c-4.29,0-7.766-3.476-7.766-7.766c0-4.29,3.476-7.766,7.766-7.766h14.497
	c4.29,0,7.766,3.476,7.766,7.766C96.013,409.632,92.535,413.108,88.246,413.108z"/>
<path style="fill:#FF395E;" d="M127.596,444.174H73.749c-4.29,0-7.766-3.476-7.766-7.766c0-4.29,3.476-7.766,7.766-7.766h53.847
	c4.29,0,7.766,3.476,7.766,7.766C135.362,440.697,131.885,444.174,127.596,444.174z"/>
<path style="fill:#C5D65C;" d="M143.129,475.733h-69.38c-4.29,0-7.766-3.476-7.766-7.766s3.476-7.766,7.766-7.766h69.38
	c4.29,0,7.766,3.476,7.766,7.766S147.418,475.733,143.129,475.733z"/>
<path style="fill:#7CA1D8;" d="M176.265,413.108h-65.238c-4.29,0-7.766-3.476-7.766-7.766c0-4.29,3.476-7.766,7.766-7.766h65.238
	c4.29,0,7.766,3.476,7.766,7.766C184.032,409.632,180.554,413.108,176.265,413.108z"/>
<path style="fill:#EAB430;" d="M440.322,381.007H337.806c-4.29,0-7.766-3.476-7.766-7.766c0-4.29,3.476-7.766,7.766-7.766h102.516
	c4.29,0,7.766,3.476,7.766,7.766C448.088,377.531,444.611,381.007,440.322,381.007z"/>
<path style="fill:#C5D65C;" d="M440.322,413.108h-14.497c-4.29,0-7.766-3.476-7.766-7.766c0-4.29,3.476-7.766,7.766-7.766h14.497
	c4.29,0,7.766,3.476,7.766,7.766C448.088,409.632,444.611,413.108,440.322,413.108z"/>
<path style="fill:#7CA1D8;" d="M440.322,444.174h-53.847c-4.29,0-7.766-3.476-7.766-7.766c0-4.29,3.476-7.766,7.766-7.766h53.847
	c4.29,0,7.766,3.476,7.766,7.766C448.088,440.697,444.611,444.174,440.322,444.174z"/>
<path style="fill:#EAB430;" d="M440.322,476.275h-69.38c-4.29,0-7.766-3.476-7.766-7.766c0-4.29,3.476-7.766,7.766-7.766h69.38
	c4.29,0,7.766,3.476,7.766,7.766C448.088,472.798,444.611,476.275,440.322,476.275z"/>
<path style="fill:#FF395E;" d="M403.043,413.108h-65.238c-4.29,0-7.766-3.476-7.766-7.766c0-4.29,3.476-7.766,7.766-7.766h65.238
	c4.29,0,7.766,3.476,7.766,7.766C410.81,409.632,407.333,413.108,403.043,413.108z"/>
<g>
	<circle style="fill:#E5D9BA;" cx="309.329" cy="462.493" r="30.37"/>
	<circle style="fill:#E5D9BA;" cx="204.742" cy="460.743" r="30.37"/>
</g>
<circle style="fill:#CDC4A6;" cx="257.036" cy="466.966" r="30.37"/>
<path style="fill:#B12E65;" d="M257.036,241.783c-0.341-0.034-0.686-0.053-1.036-0.053c-5.716,0-10.355,4.639-10.355,10.355v42.456
	c0,5.716,4.639,10.355,10.355,10.355c0.35,0,0.695-0.019,1.036-0.053V241.783z"/>
<g>
</g>
<g>
</g>
<g>
</g>
<g>
</g>
<g>
</g>
<g>
</g>
<g>
</g>
<g>
</g>
<g>
</g>
<g>
</g>
<g>
</g>
<g>
</g>
<g>
</g>
<g>
</g>
<g>
</g>
</svg>
